<svg xmlns="http://www.w3.org/2000/svg" class="graphdiagram" viewBox="-2409.832329520098 -1323.0689533223926 1987.4478438761619 1106.3775885062405"><g class="layer relationships"><g class="related-pair"><g class="relationship" transform="translate(-2123,-1080.8) rotate(57.78667593984773)"><path class="relationship" d="M 89.00909015790026 4 L 419.37591067265305 4 L 419.37591067265305 16 L 451.37591067265305 0 L 419.37591067265305 -16 L 419.37591067265305 -4 L 89.00909015790026 -4 Z" fill="rgb(0, 0, 0)" stroke="rgb(51, 51, 51)" stroke-width="0px"/><text class="type" text-anchor="middle" baseline-shift="30%" alignment-baseline="alphabetic" x="254.19250041527667" y="0" font-size="50px" font-family="'Gill Sans', 'Gill Sans MT', Calibri, sans-serif">BELONGS_TO</text></g></g><g class="related-pair"><g class="relationship" transform="translate(-1804.9052672664034,-575.9345464258847) rotate(-42.19959710330285)"><path class="relationship" d="M 145.34293870740075 4 L 574.2632751143132 4 L 574.2632751143132 16 L 606.2632751143132 0 L 574.2632751143132 -16 L 574.2632751143132 -4 L 145.34293870740075 -4 Z" fill="rgb(0, 0, 0)" stroke="rgb(51, 51, 51)" stroke-width="0px"/><text class="type" text-anchor="middle" baseline-shift="30%" alignment-baseline="alphabetic" x="359.80310691085697" y="0" font-size="50px" font-family="'Gill Sans', 'Gill Sans MT', Calibri, sans-serif">BELONGS_TO</text></g></g><g class="related-pair"><g class="relationship" transform="translate(-1248.1083793056182,-1080.8) rotate(49.319274176354796)"><path class="relationship" d="M 145.34293870740075 4 L 613.5782450855393 4 L 613.5782450855393 16 L 645.5782450855393 0 L 613.5782450855393 -16 L 613.5782450855393 -4 L 145.34293870740075 -4 Z" fill="rgb(0, 0, 0)" stroke="rgb(51, 51, 51)" stroke-width="0px"/><text class="type" text-anchor="middle" baseline-shift="30%" alignment-baseline="alphabetic" x="379.46059189646996" y="0" font-size="50px" font-family="'Gill Sans', 'Gill Sans MT', Calibri, sans-serif">HAS_PERMISSION</text></g></g></g><g class="layer nodes"><circle class="node node-id-0" r="74.00909015790026" fill="rgb(255, 255, 255)" stroke="rgb(0, 0, 0)" stroke-width="8px" cx="-2123" cy="-1080.8"/><g class="caption"><text class="caption node" text-anchor="middle" alignment-baseline="central" x="-2123" y="-1080.8" font-size="50px" font-family="'Gill Sans', 'Gill Sans MT', Calibri, sans-serif">User</text></g><circle class="node node-id-1" r="130.34293870740075" fill="rgb(255, 255, 255)" stroke="rgb(0, 0, 0)" stroke-width="8px" cx="-1804.9052672664034" cy="-575.9345464258847"/><g class="caption"><text class="caption node" text-anchor="middle" alignment-baseline="central" x="-1804.9052672664034" y="-575.9345464258847" font-size="50px" font-family="'Gill Sans', 'Gill Sans MT', Calibri, sans-serif">Usergroup</text></g><circle class="node node-id-2" r="130.34293870740075" fill="rgb(255, 255, 255)" stroke="rgb(0, 0, 0)" stroke-width="8px" cx="-1248.1083793056182" cy="-1080.8"/><g class="caption"><text class="caption node" text-anchor="middle" alignment-baseline="central" x="-1248.1083793056182" y="-1080.8" font-size="50px" font-family="'Gill Sans', 'Gill Sans MT', Calibri, sans-serif">Usergroup</text></g><circle class="node node-id-3" r="118.20181449953424" fill="rgb(255, 255, 255)" stroke="rgb(0, 0, 0)" stroke-width="8px" cx="-740.4657902251112" cy="-490.2092931996221"/><g class="caption"><text class="caption node" text-anchor="middle" alignment-baseline="central" x="-740.4657902251112" y="-490.2092931996221" font-size="50px" font-family="'Gill Sans', 'Gill Sans MT', Calibri, sans-serif">Resource</text></g></g><g class="layer properties"><g class="speech-bubble node-speech-bubble" transform="translate(-2175.332329520098,-1133.1323295200978) "><path class="speech-bubble-outline" transform="scale(-1,-1) " d="M 0 0 L 30 20 L 223 20 A 10 10 0 0 1 233 30 L 233 80 A 10 10 0 0 1 223 90 L 30 90 A 10 10 0 0 1 20 80 L 20 30 Z" fill="rgb(255, 255, 255)" stroke="rgb(0, 0, 0)" stroke-width="3px"/><text class="speech-bubble-content property-key" x="-134" y="-55" alignment-baseline="central" text-anchor="end" font-size="50px" font-family="'Gill Sans', 'Gill Sans MT', Calibri, sans-serif">_id: </text><text class="speech-bubble-content property-value" x="-134" y="-55" alignment-baseline="central" font-size="50px" font-family="'Gill Sans', 'Gill Sans MT', Calibri, sans-serif">'uuid'</text></g><g class="speech-bubble node-speech-bubble" transform="translate(-1804.9052672664034,-445.59160771848394) "><path class="speech-bubble-outline" transform="scale(1,1) " d="M 0 0 L -10 20 L -130.5 20 A 10 10 0 0 0 -140.5 30 L -140.5 80 A 10 10 0 0 0 -130.5 90 L 130.5 90 A 10 10 0 0 0 140.5 80 L 140.5 30 A 10 10 0 0 0 130.5 20 L 10 20 Z" fill="rgb(255, 255, 255)" stroke="rgb(0, 0, 0)" stroke-width="3px"/><text class="speech-bubble-content property-key" x="3.5" y="55" alignment-baseline="central" text-anchor="end" font-size="50px" font-family="'Gill Sans', 'Gill Sans MT', Calibri, sans-serif">name: </text><text class="speech-bubble-content property-value" x="3.5" y="55" alignment-baseline="central" font-size="50px" font-family="'Gill Sans', 'Gill Sans MT', Calibri, sans-serif">'name'</text></g><g class="speech-bubble relationship-speech-bubble" transform="translate(-1987.4968303473456,-865.7355485407818) "><path class="speech-bubble-outline" transform="scale(-1,1) " d="M 0 0 L 30 20 L 400 20 A 10 10 0 0 1 410 30 L 410 80 A 10 10 0 0 1 400 90 L 30 90 A 10 10 0 0 1 20 80 L 20 30 Z" fill="rgb(255, 255, 255)" stroke="rgb(0, 0, 0)" stroke-width="3px"/><text class="speech-bubble-content property-key" x="-274" y="55" alignment-baseline="central" text-anchor="end" font-size="50px" font-family="'Gill Sans', 'Gill Sans MT', Calibri, sans-serif">since: </text><text class="speech-bubble-content property-value" x="-274" y="55" alignment-baseline="central" font-size="50px" font-family="'Gill Sans', 'Gill Sans MT', Calibri, sans-serif">timestamp()</text></g><g class="speech-bubble node-speech-bubble" transform="translate(-656.8844856439362,-406.62798861844703) "><path class="speech-bubble-outline" transform="scale(1,1) " d="M 0 0 L 30 20 L 223 20 A 10 10 0 0 1 233 30 L 233 80 A 10 10 0 0 1 223 90 L 30 90 A 10 10 0 0 1 20 80 L 20 30 Z" fill="rgb(255, 255, 255)" stroke="rgb(0, 0, 0)" stroke-width="3px"/><text class="speech-bubble-content property-key" x="119" y="55" alignment-baseline="central" text-anchor="end" font-size="50px" font-family="'Gill Sans', 'Gill Sans MT', Calibri, sans-serif">_id: </text><text class="speech-bubble-content property-value" x="119" y="55" alignment-baseline="central" font-size="50px" font-family="'Gill Sans', 'Gill Sans MT', Calibri, sans-serif">'uuid'</text></g><g class="speech-bubble relationship-speech-bubble" transform="translate(-1000.7595226502779,-793.0346721480935) "><path class="speech-bubble-outline" transform="scale(-1,1) " d="M 0 0 L 30 20 L 308 20 A 10 10 0 0 1 318 30 L 318 80 A 10 10 0 0 1 308 90 L 30 90 A 10 10 0 0 1 20 80 L 20 30 Z" fill="rgb(255, 255, 255)" stroke="rgb(0, 0, 0)" stroke-width="3px"/><text class="speech-bubble-content property-key" x="-225" y="55" alignment-baseline="central" text-anchor="end" font-size="50px" font-family="'Gill Sans', 'Gill Sans MT', Calibri, sans-serif">list: </text><text class="speech-bubble-content property-value" x="-225" y="55" alignment-baseline="central" font-size="50px" font-family="'Gill Sans', 'Gill Sans MT', Calibri, sans-serif">['p1', 'p2']</text></g></g><g class="layer overlay"><circle class="node overlay" r="78.00909015790026" stroke="none" fill="rgba(255, 255, 255, 0)" cx="-2123" cy="-1080.8"/><circle class="node ring" r="83.00909015790026" fill="none" stroke="rgba(255, 255, 255, 0)" stroke-width="10px" cx="-2123" cy="-1080.8"/><circle class="node overlay" r="134.34293870740075" stroke="none" fill="rgba(255, 255, 255, 0)" cx="-1804.9052672664034" cy="-575.9345464258847"/><circle class="node ring" r="139.34293870740075" fill="none" stroke="rgba(255, 255, 255, 0)" stroke-width="10px" cx="-1804.9052672664034" cy="-575.9345464258847"/><path class="relationship overlay" fill="rgba(255, 255, 255, 0)" stroke="rgba(255, 255, 255, 0)" stroke-width="10px" transform="translate(-2123,-1080.8) rotate(57.78667593984773)" d="M 89.00909015790026 4 L 419.37591067265305 4 L 419.37591067265305 16 L 451.37591067265305 0 L 419.37591067265305 -16 L 419.37591067265305 -4 L 89.00909015790026 -4 Z"/><circle class="node overlay" r="134.34293870740075" stroke="none" fill="rgba(255, 255, 255, 0)" cx="-1248.1083793056182" cy="-1080.8"/><circle class="node ring" r="139.34293870740075" fill="none" stroke="rgba(255, 255, 255, 0)" stroke-width="10px" cx="-1248.1083793056182" cy="-1080.8"/><path class="relationship overlay" fill="rgba(255, 255, 255, 0)" stroke="rgba(255, 255, 255, 0)" stroke-width="10px" transform="translate(-1804.9052672664034,-575.9345464258847) rotate(-42.19959710330285)" d="M 145.34293870740075 4 L 574.2632751143132 4 L 574.2632751143132 16 L 606.2632751143132 0 L 574.2632751143132 -16 L 574.2632751143132 -4 L 145.34293870740075 -4 Z"/><circle class="node overlay" r="122.20181449953424" stroke="none" fill="rgba(255, 255, 255, 0)" cx="-740.4657902251112" cy="-490.2092931996221"/><circle class="node ring" r="127.20181449953424" fill="none" stroke="rgba(255, 255, 255, 0)" stroke-width="10px" cx="-740.4657902251112" cy="-490.2092931996221"/><path class="relationship overlay" fill="rgba(255, 255, 255, 0)" stroke="rgba(255, 255, 255, 0)" stroke-width="10px" transform="translate(-1248.1083793056182,-1080.8) rotate(49.319274176354796)" d="M 145.34293870740075 4 L 613.5782450855393 4 L 613.5782450855393 16 L 645.5782450855393 0 L 613.5782450855393 -16 L 613.5782450855393 -4 L 145.34293870740075 -4 Z"/></g></svg>